<?xml version="1.0" standalone="no"?>
<!DOCTYPE svg PUBLIC "-//W3C//DTD SVG 20010904//EN"
 "http://www.w3.org/TR/2001/REC-SVG-20010904/DTD/svg10.dtd">
<svg version="1.0" xmlns="http://www.w3.org/2000/svg"
 width="1920.000000pt" height="1080.000000pt" viewBox="0 0 1920.000000 1080.000000"
 preserveAspectRatio="xMidYMid meet">

<g transform="translate(0.000000,1080.000000) scale(0.100000,-0.100000)"
fill="#000000" stroke="none">
<path d="M0 5400 l0 -5400 9600 0 9600 0 0 5400 0 5400 -9600 0 -9600 0 0
-5400z m10200 0 l0 -600 -600 0 -600 0 0 600 0 600 600 0 600 0 0 -600z
m-4822 -1012 c7 -7 12 -24 12 -38 0 -14 -5 -31 -12 -38 -28 -28 -88 -2 -88 38
0 40 60 66 88 38z m2850 0 c7 -7 12 -24 12 -38 0 -34 -17 -50 -52 -50 -37 0
-57 38 -40 75 13 27 58 35 80 13z m1700 0 c7 -7 12 -24 12 -38 0 -14 -5 -31
-12 -38 -19 -19 -66 -15 -78 7 -23 44 -5 81 40 81 14 0 31 -5 38 -12z m3501
-2 c16 -19 10 -66 -10 -79 -44 -28 -95 25 -69 72 13 25 61 29 79 7z m-7259
-226 l0 -220 -35 0 c-29 0 -35 4 -35 21 0 20 -1 20 -31 -5 -36 -30 -92 -35
-127 -10 -69 48 -79 206 -19 273 29 31 77 51 127 51 l40 0 0 55 0 55 40 0 40
0 0 -220z m1560 144 l0 -75 26 20 c38 30 94 28 133 -5 80 -67 63 -245 -29
-296 -28 -16 -50 -19 -111 -15 -41 2 -81 7 -87 11 -9 5 -12 67 -12 222 l0 214
40 0 40 0 0 -76z m-184 14 c39 -44 54 -91 54 -179 0 -84 -37 -163 -90 -191
-49 -25 -119 -23 -161 5 -54 35 -74 87 -74 187 0 154 58 224 179 217 53 -3 62
-7 92 -39z m1644 -8 l0 -50 65 0 65 0 0 -30 0 -30 -65 0 -65 0 0 -83 c0 -111
13 -132 81 -123 49 7 49 7 49 -23 0 -34 -13 -41 -80 -41 -106 0 -130 34 -130
180 l0 90 -40 0 c-38 0 -40 2 -40 30 0 28 2 30 40 30 40 0 40 0 40 39 0 34 4
41 28 49 48 18 52 15 52 -38z m3230 41 c20 -5 26 -14 28 -45 3 -34 1 -38 -14
-32 -37 14 -100 17 -127 7 -21 -8 -28 -17 -25 -34 2 -16 21 -31 77 -58 88 -42
121 -76 121 -125 0 -88 -64 -133 -187 -134 -96 0 -103 4 -103 52 0 37 2 40 23
34 97 -26 177 -14 177 27 0 32 -23 51 -92 77 -62 23 -93 53 -103 101 -9 42 21
100 65 121 35 18 112 22 160 9z m1670 -41 l0 -50 65 0 65 0 0 -30 0 -30 -65 0
-65 0 0 -83 c0 -111 14 -132 81 -124 48 6 49 6 49 -22 0 -17 -7 -31 -16 -35
-29 -11 -115 -6 -143 9 -39 19 -51 60 -51 166 l0 89 -40 0 c-38 0 -40 2 -40
30 0 28 2 30 40 30 40 0 40 0 40 40 0 36 3 40 33 49 17 5 35 10 40 10 4 1 7
-21 7 -49z m-9197 -67 c4 -58 7 -129 8 -157 l1 -51 13 40 c8 22 21 66 30 98
15 51 19 57 43 57 26 0 29 -5 51 -86 13 -47 27 -82 32 -77 5 5 10 69 11 143
l3 135 34 3 34 3 -7 -148 c-4 -81 -9 -174 -13 -206 l-6 -58 -46 3 -46 3 -25
88 -26 88 -25 -88 -26 -88 -45 -3 -45 -3 -7 108 c-3 59 -9 152 -12 206 l-7 97
35 0 35 0 6 -107z m6147 -58 c0 -184 -7 -213 -60 -240 -33 -17 -106 -20 -144
-5 -21 8 -26 16 -26 44 l0 35 35 -15 c47 -19 71 -18 95 6 18 18 20 33 20 150
l0 130 -72 0 -73 0 0 30 0 30 113 0 112 0 0 -165z m-5253 61 c28 -24 28 -25
31 -165 l4 -141 -41 0 -41 0 0 118 c0 149 -15 170 -79 116 -31 -26 -31 -26
-31 -130 l0 -104 -40 0 -40 0 0 160 0 160 35 0 c29 0 35 -4 35 -21 0 -20 1
-20 31 5 41 35 97 35 136 2z m699 -7 c82 -75 67 -242 -26 -291 -49 -26 -119
-24 -161 5 -47 32 -64 70 -64 147 0 116 58 174 167 167 44 -2 64 -9 84 -28z
m2082 11 c39 -24 62 -73 62 -130 l0 -40 -105 0 c-60 0 -105 -4 -105 -10 0 -25
25 -60 51 -71 28 -11 85 -8 124 7 14 6 16 1 13 -27 -4 -39 -21 -46 -109 -48
-105 -2 -164 64 -156 176 5 70 33 125 75 148 40 21 111 19 150 -5z m366 10
c21 -8 26 -16 26 -46 0 -30 -3 -35 -17 -29 -40 15 -75 17 -103 5 -38 -16 -50
-37 -50 -90 0 -53 12 -74 50 -90 28 -12 63 -10 103 5 14 6 17 1 17 -29 0 -30
-5 -38 -26 -46 -37 -14 -109 -12 -148 4 -116 48 -111 260 8 312 37 16 104 18
140 4z m1403 -14 c28 -24 28 -25 31 -165 l4 -141 -41 0 -41 0 0 118 c0 149
-15 170 -79 116 -31 -26 -31 -26 -31 -130 l0 -104 -40 0 -40 0 0 160 0 160 35
0 c29 0 35 -4 35 -21 0 -20 1 -20 31 5 41 35 97 35 136 2z m1028 9 c47 -23 55
-50 55 -190 l0 -125 -35 0 c-25 0 -35 4 -35 16 0 13 -5 12 -34 -5 -47 -30
-110 -28 -141 3 -36 36 -42 73 -19 115 22 41 63 60 137 60 41 1 47 4 47 23 0
53 -51 71 -129 43 l-41 -14 0 33 c0 29 4 35 33 44 49 15 125 14 162 -3z m700
0 c47 -23 55 -50 55 -190 l0 -125 -35 0 c-25 0 -35 4 -35 16 0 13 -5 12 -34
-5 -47 -30 -110 -28 -141 3 -36 36 -42 73 -19 115 22 41 63 60 137 60 41 1 47
4 47 23 0 53 -51 71 -129 43 l-41 -14 0 30 c0 24 6 33 33 44 43 19 121 19 162
0z m719 5 c21 -8 26 -16 26 -46 0 -30 -3 -35 -17 -29 -40 15 -75 17 -103 5
-38 -16 -50 -37 -50 -90 0 -53 12 -74 50 -90 28 -12 63 -10 103 5 14 6 17 1
17 -29 0 -43 -23 -56 -98 -56 -67 0 -112 26 -139 80 -47 92 -13 208 72 246 36
16 104 18 139 4z m350 -1 c24 -11 39 -37 52 -91 6 -27 5 -28 -35 -28 -37 0
-41 3 -49 33 -11 44 -42 47 -76 7 -24 -30 -26 -38 -26 -136 l0 -104 -45 0 -45
0 0 160 0 160 40 0 c34 0 40 -3 40 -22 0 -19 2 -20 13 -6 29 37 84 48 131 27z
m705 -15 c54 -45 68 -159 28 -234 -28 -53 -75 -80 -139 -80 l-48 0 0 -55 0
-55 -40 0 -40 0 0 220 0 220 35 0 c29 0 35 -4 35 -21 0 -20 1 -20 31 5 41 35
96 35 138 0z m-8449 -114 l0 -130 45 0 c43 0 45 -1 45 -30 l0 -30 -140 0 -140
0 0 30 c0 29 1 30 50 30 l50 0 0 100 0 100 -40 0 c-38 0 -40 2 -40 30 l0 30
85 0 85 0 0 -130z m1259 23 c7 -59 14 -109 15 -111 2 -1 12 27 22 63 18 62 20
65 51 65 30 0 32 -3 54 -67 l24 -68 11 105 c7 58 13 108 13 113 1 4 17 7 37 7
34 0 36 -2 31 -27 -3 -16 -13 -88 -23 -161 l-17 -133 -45 3 -45 3 -22 65 -22
65 -18 -68 -18 -68 -46 3 -46 3 -17 120 c-9 66 -19 137 -22 158 l-6 37 39 0
38 0 12 -107z m1589 -75 c-3 -162 -5 -186 -23 -212 -32 -48 -101 -66 -183 -50
-30 6 -42 29 -34 66 3 15 6 15 37 2 48 -20 79 -18 101 7 16 18 19 40 22 165
l4 144 -76 0 -76 0 0 30 0 30 116 0 116 0 -4 -182z m1702 52 l0 -130 45 0 c43
0 45 -1 45 -30 l0 -30 -140 0 -140 0 0 30 c0 29 1 30 50 30 l50 0 0 100 0 100
-39 0 c-33 0 -39 3 -43 25 -3 13 -3 27 0 30 3 3 43 5 89 5 l83 0 0 -130z
m1654 15 c22 -63 43 -112 46 -108 4 5 24 56 45 116 l38 107 42 0 43 0 -62
-157 -62 -158 -46 -3 -46 -3 -61 154 c-34 85 -61 157 -61 161 0 3 19 6 43 6
l42 0 39 -115z m1846 -15 l0 -130 45 0 c43 0 45 -1 45 -30 l0 -30 -140 0 -140
0 0 30 c0 29 1 30 50 30 l50 0 0 100 0 100 -40 0 c-38 0 -40 2 -40 30 l0 30
85 0 85 0 0 -130z"/>
<path d="M9852 5442 c-30 -9 -82 -60 -94 -91 -14 -38 0 -107 29 -142 14 -16
66 -50 114 -75 49 -24 89 -48 89 -53 0 -5 3 -16 6 -25 3 -9 -5 -26 -20 -41
-39 -39 -98 -33 -152 17 -22 19 -22 19 -63 -2 l-41 -21 22 -29 c55 -75 188
-102 278 -57 59 30 82 74 77 145 -5 68 -41 108 -148 158 -88 42 -110 70 -84
110 20 31 76 33 105 4 l20 -20 35 22 c19 13 35 25 35 29 0 3 -15 20 -34 38
-29 28 -42 33 -92 36 -33 2 -69 1 -82 -3z"/>
<path d="M9548 5238 c-3 -112 -8 -211 -12 -221 -16 -36 -80 -33 -115 4 -18 20
-19 20 -55 -2 -43 -25 -44 -32 -11 -65 83 -83 227 -68 274 29 19 40 21 60 21
250 l0 207 -49 0 -49 0 -4 -202z"/>
<path d="M5995 4186 c-21 -22 -25 -34 -25 -89 0 -50 4 -68 19 -81 23 -21 49
-15 80 18 19 20 22 32 19 97 l-3 74 -32 3 c-24 2 -39 -3 -58 -22z"/>
<path d="M7759 4171 c-27 -27 -29 -35 -29 -100 0 -68 1 -71 26 -77 62 -16 112
51 99 133 -11 76 -47 92 -96 44z"/>
<path d="M7402 4283 c-40 -16 -59 -181 -27 -242 39 -76 125 -43 139 53 20 131
-33 221 -112 189z"/>
<path d="M6348 4189 c-47 -27 -42 -159 7 -181 62 -28 113 33 100 119 -9 62
-59 91 -107 62z"/>
<path d="M8452 4193 c-11 -10 -23 -28 -27 -40 -6 -22 -4 -23 59 -23 59 0 66 2
66 20 0 25 -34 60 -59 60 -10 0 -28 -8 -39 -17z"/>
<path d="M11248 4069 c-11 -6 -18 -22 -18 -39 0 -23 5 -31 25 -36 33 -8 85 29
85 62 0 21 -4 24 -37 24 -21 0 -46 -5 -55 -11z"/>
<path d="M11948 4069 c-11 -6 -18 -22 -18 -39 0 -23 5 -31 25 -36 33 -8 85 29
85 62 0 21 -4 24 -37 24 -21 0 -46 -5 -55 -11z"/>
<path d="M13709 4170 c-28 -28 -30 -33 -27 -102 3 -71 4 -73 30 -76 62 -7 105
55 93 135 -11 76 -47 92 -96 43z"/>
</g>
</svg>
